<svg xmlns="http://www.w3.org/2000/svg" width="2.5in" height="2.75in" viewBox="0 0 250 275" font-family="EB Garamond, Georgia, serif">
  <title>Maz Maziarza - Wagon Grease front label (cream/murrey, border rule)</title>
  <rect x="0" y="0" width="250" height="275" rx="4" fill="#F2E8D5" stroke="#D9C9A8" stroke-width="1"/>
  <rect x="9" y="9" width="232" height="257" fill="none" stroke="#5B2A3A" stroke-width="1"/>
  <text x="125" y="42" text-anchor="middle" font-size="10" letter-spacing="3" fill="#8A6A2F">WYRÓB DOMOWY</text>
  <text x="125" y="74" text-anchor="middle" font-size="25" letter-spacing="2.5" font-weight="600" fill="#5B2A3A">MAŹ</text>
  <text x="125" y="102" text-anchor="middle" font-size="25" letter-spacing="2.5" font-weight="600" fill="#5B2A3A">MAZIARZA</text>
  <line x1="34" y1="122" x2="98" y2="122" stroke="#5B2A3A" stroke-width="1"/>
  <line x1="152" y1="122" x2="216" y2="122" stroke="#5B2A3A" stroke-width="1"/>
  <g fill="#2B2B2B">
    <path transform="translate(104,113)" d="M5 1 C5 1 1 7 1 10 a4 4 0 0 0 8 0 C9 7 5 1 5 1 Z"/>
    <path transform="translate(120,115.5)" d="M5 1 C5 1 1 7 1 10 a4 4 0 0 0 8 0 C9 7 5 1 5 1 Z"/>
    <path transform="translate(136,113)" d="M5 1 C5 1 1 7 1 10 a4 4 0 0 0 8 0 C9 7 5 1 5 1 Z"/>
  </g>
  <text x="125" y="152" text-anchor="middle" font-size="15" letter-spacing="2.5" font-weight="500" fill="#3F1D28">WAGON GREASE</text>
  <text x="125" y="174" text-anchor="middle" font-size="11.5" letter-spacing="0.5" fill="#6E4A22">beeswax · neatsfoot · pine tar &amp; rosin</text>
  <text x="125" y="200" text-anchor="middle" font-size="12.5" font-style="italic" fill="#5B2A3A">For leather, haft, and wheel.</text>
  <text x="125" y="252" text-anchor="middle" font-size="10" letter-spacing="2" fill="#8A6A2F">NET WT 4 OZ · 113 g</text>
</svg>
